<?xml version="1.0" encoding="UTF-8"?>
<svg version="1.1" xmlns="http://www.w3.org/2000/svg" width="561" height="521">
<path d="M0 0 C1.63067162 -0.00104625 3.26134286 -0.00295854 4.8920126 -0.00564957 C9.30075715 -0.01038185 13.70940008 -0.00272702 18.11813235 0.00735211 C22.85915468 0.01606548 27.60017347 0.01329308 32.34120178 0.01219177 C41.52485657 0.01206865 50.70846243 0.0232665 59.89210194 0.03933376 C67.31306599 0.05231328 74.73402738 0.06205844 82.15499878 0.06970215 C106.90968051 0.09592599 131.6642653 0.14258942 156.41888124 0.20500457 C157.46020304 0.20762711 158.50152485 0.21024965 159.57440186 0.21295166 C160.60884609 0.21555878 161.64329032 0.2181659 162.70908135 0.22085202 C169.67057279 0.2381099 176.63206536 0.25257866 183.59356689 0.26507568 C202.82094036 0.29975194 222.04814673 0.34386687 241.27536201 0.43164158 C242.87270225 0.43892216 244.47004251 0.44619525 246.06738281 0.45346069 C246.85007408 0.45703321 247.63276535 0.46060573 248.43917453 0.46428651 C253.89255001 0.48828422 259.3458995 0.50273978 264.79931641 0.51309204 C271.39592666 0.52581705 277.99230139 0.55253463 284.58877558 0.59723204 C287.90055248 0.61937237 291.21181225 0.63372689 294.52369881 0.63485527 C312.7846911 0.64698628 330.62054443 1.7232028 347.79882812 8.49291992 C348.57291016 8.78884033 349.34699219 9.08476074 350.14453125 9.38964844 C357.52583625 12.30849438 364.25131249 15.94452034 370.92382812 20.24291992 C371.86355469 20.84620117 372.80328125 21.44948242 373.77148438 22.07104492 C391.32668624 34.09446375 403.58339112 50.83492756 411.92382812 70.24291992 C411.92382812 71.23291992 411.92382812 72.22291992 411.92382812 73.24291992 C412.58382812 73.24291992 413.24382813 73.24291992 413.92382812 73.24291992 C418.71376642 88.2870465 421.07979755 101.65489875 421.05754089 117.45448303 C421.06093923 119.24402874 421.06093923 119.24402874 421.06440622 121.06972688 C421.06961324 124.35498468 421.07039594 127.64020775 421.06921184 130.92546833 C421.06900669 134.47916542 421.07453755 138.03285453 421.07926941 141.58654785 C421.08755243 148.53987798 421.09032321 155.49319963 421.09088179 162.44653428 C421.09135816 168.1040459 421.09341896 173.76155474 421.09658241 179.41906548 C421.10538338 195.48776496 421.11000278 211.55645778 421.10925194 227.62515969 C421.109192 228.92276375 421.109192 228.92276375 421.10913086 230.24658203 C421.10906954 231.54578578 421.10906954 231.54578578 421.10900698 232.87123608 C421.1086009 246.89472295 421.11816234 260.91818292 421.13226923 274.94166202 C421.14666679 289.36893092 421.15353752 303.79618674 421.15267545 318.223463 C421.1523446 326.31190562 421.15504237 334.40032006 421.1658535 342.48875618 C421.17500321 349.37794238 421.17709741 356.26708763 421.17034408 363.15627731 C421.16710098 366.66421811 421.16694107 370.17208053 421.17569733 373.68001366 C421.2107606 390.88582514 421.20316467 407.84489357 416.86132812 424.61791992 C416.68794922 425.3269043 416.51457031 426.03588867 416.3359375 426.76635742 C415.62734937 429.63328871 414.85801371 432.44036316 413.92382812 435.24291992 C413.26382813 435.24291992 412.60382812 435.24291992 411.92382812 435.24291992 C411.78847656 436.49008789 411.78847656 436.49008789 411.65039062 437.76245117 C410.78631821 441.90163678 409.22843194 445.19526788 407.29882812 448.93041992 C406.94199951 449.63086426 406.5851709 450.33130859 406.2175293 451.05297852 C400.867767 461.39703718 395.1727332 470.9937781 385.92382812 478.24291992 C385.26382813 479.23291992 384.60382812 480.22291992 383.92382812 481.24291992 C383.26382813 481.24291992 382.60382812 481.24291992 381.92382812 481.24291992 C381.59382812 482.23291992 381.26382813 483.22291992 380.92382812 484.24291992 C379.56709649 485.22655036 378.19758684 486.19641864 376.77539062 487.08276367 C375.47785247 487.89577809 374.2030776 488.745736 372.94726562 489.62182617 C364.15169831 495.74673941 354.71093416 500.09676712 344.73632812 503.93041992 C343.6614917 504.35859009 343.6614917 504.35859009 342.56494141 504.79541016 C327.40372799 510.42525869 311.63437823 510.7059656 295.67382812 510.75463867 C293.5286361 510.77158084 291.38345341 510.78974282 289.23828125 510.80903625 C283.60200064 510.85625735 277.9657573 510.88615599 272.3293457 510.91247559 C267.87445845 510.93594926 263.41970516 510.97112055 258.96490479 511.00720501 C201.94381691 511.46814902 144.91856882 511.23967973 87.89682007 511.00720501 C76.73135253 510.96196134 65.56592103 510.92248858 54.40039062 510.89648438 C44.50782797 510.87343848 34.6153638 510.84003381 24.72287941 510.79421836 C19.53242211 510.77050767 14.34206034 510.7516313 9.15155029 510.74530602 C4.29830627 510.73921691 -0.55468644 510.71908123 -5.40783691 510.68864441 C-7.17130787 510.67994791 -8.93481173 510.67612388 -10.69830322 510.67791176 C-25.95644738 510.68848903 -40.46162636 509.00211862 -54.95117188 503.93041992 C-55.83973877 503.62555664 -56.72830566 503.32069336 -57.64379883 503.0065918 C-68.19992842 499.28237921 -77.12256127 493.91230231 -86.07617188 487.24291992 C-86.94628906 486.60225586 -87.81640625 485.9615918 -88.71289062 485.30151367 C-93.53035915 481.62180303 -97.33740592 478.02602075 -100.78320312 473.03588867 C-102.14521996 471.0305229 -102.14521996 471.0305229 -104.57617188 468.86791992 C-108.00328279 465.26945346 -113.07617188 459.43345445 -113.07617188 454.24291992 C-114.06617187 453.91291992 -115.05617188 453.58291992 -116.07617188 453.24291992 C-117.1953125 451.32861328 -117.1953125 451.32861328 -118.23242188 448.83276367 C-118.61527344 447.92461914 -118.998125 447.01647461 -119.39257812 446.08081055 C-119.78316406 445.12368164 -120.17375 444.16655273 -120.57617188 443.18041992 C-120.96675781 442.25036133 -121.35734375 441.32030273 -121.75976562 440.36206055 C-122.88638184 437.66311294 -123.99736321 434.96135772 -125.07617188 432.24291992 C-125.55994986 431.05435709 -126.04372784 429.86579426 -126.54216576 428.64121437 C-132.61221791 412.317053 -131.51794117 393.47873684 -131.46834588 376.37160397 C-131.46144759 372.83774117 -131.47208903 369.30391942 -131.48028564 365.77006531 C-131.4935132 358.8770262 -131.49079459 351.98408598 -131.48204772 345.09104325 C-131.47522671 339.47960597 -131.47437335 333.86819608 -131.47761917 328.25675583 C-131.47807887 327.4530609 -131.47853857 326.64936597 -131.4790122 325.82131665 C-131.47997154 324.18775968 -131.48094418 322.55420272 -131.48192997 320.92064576 C-131.490452 305.65973573 -131.48070065 290.39888006 -131.46452887 275.13797896 C-131.45113376 262.09448155 -131.45345336 249.05106431 -131.46728516 236.00756836 C-131.48340656 220.79821024 -131.48962296 205.5888996 -131.48044837 190.37953413 C-131.47949289 188.75192794 -131.47854978 187.12432175 -131.47761917 185.49671555 C-131.47715634 184.69626236 -131.47669352 183.89580917 -131.47621667 183.07109983 C-131.47364598 177.47913682 -131.47795595 171.88720439 -131.48505783 166.29524612 C-131.49354665 159.46210108 -131.49104027 152.62905914 -131.4752156 145.79592563 C-131.46742984 142.32156561 -131.46407104 138.84737631 -131.47416306 135.37301826 C-131.51237384 118.0002489 -131.52894958 100.17376076 -127.07617188 83.24291992 C-126.41617188 83.24291992 -125.75617188 83.24291992 -125.07617188 83.24291992 C-124.98851563 82.27483398 -124.90085937 81.30674805 -124.81054688 80.30932617 C-124.13037824 75.58262978 -122.28719687 71.50260552 -120.32617188 67.18041992 C-119.8234375 66.01542969 -119.8234375 66.01542969 -119.31054688 64.8269043 C-117.11716059 59.92086414 -114.63478598 56.25822284 -111.07617188 52.24291992 C-110.49867187 51.17041992 -109.92117187 50.09791992 -109.32617188 48.99291992 C-106.42072286 43.72607011 -102.2387528 39.53437332 -98.07617188 35.24291992 C-97.2846875 34.4256543 -96.49320313 33.60838867 -95.67773438 32.76635742 C-82.04461817 19.55272172 -64.90807524 11.28233241 -47.01367188 5.55541992 C-46.11044189 5.25732422 -45.20721191 4.95922852 -44.27661133 4.65209961 C-29.95022689 0.25705837 -14.87211931 -0.05865188 0 0 Z " fill="#66C6ED" transform="translate(137.076171875,5.757080078125)"/>
<path d="M0 0 C1.63067162 -0.00104625 3.26134286 -0.00295854 4.8920126 -0.00564957 C9.30075715 -0.01038185 13.70940008 -0.00272702 18.11813235 0.00735211 C22.85915468 0.01606548 27.60017347 0.01329308 32.34120178 0.01219177 C41.52485657 0.01206865 50.70846243 0.0232665 59.89210194 0.03933376 C67.31306599 0.05231328 74.73402738 0.06205844 82.15499878 0.06970215 C106.90968051 0.09592599 131.6642653 0.14258942 156.41888124 0.20500457 C157.46020304 0.20762711 158.50152485 0.21024965 159.57440186 0.21295166 C160.60884609 0.21555878 161.64329032 0.2181659 162.70908135 0.22085202 C169.67057279 0.2381099 176.63206536 0.25257866 183.59356689 0.26507568 C202.82094036 0.29975194 222.04814673 0.34386687 241.27536201 0.43164158 C242.87270225 0.43892216 244.47004251 0.44619525 246.06738281 0.45346069 C246.85007408 0.45703321 247.63276535 0.46060573 248.43917453 0.46428651 C253.89255001 0.48828422 259.3458995 0.50273978 264.79931641 0.51309204 C271.39592666 0.52581705 277.99230139 0.55253463 284.58877558 0.59723204 C287.90055248 0.61937237 291.21181225 0.63372689 294.52369881 0.63485527 C312.7846911 0.64698628 330.62054443 1.7232028 347.79882812 8.49291992 C348.57291016 8.78884033 349.34699219 9.08476074 350.14453125 9.38964844 C357.52583625 12.30849438 364.25131249 15.94452034 370.92382812 20.24291992 C371.86355469 20.84620117 372.80328125 21.44948242 373.77148438 22.07104492 C391.32668624 34.09446375 403.58339112 50.83492756 411.92382812 70.24291992 C411.92382812 71.23291992 411.92382812 72.22291992 411.92382812 73.24291992 C412.58382812 73.24291992 413.24382813 73.24291992 413.92382812 73.24291992 C418.71376642 88.2870465 421.07979755 101.65489875 421.05754089 117.45448303 C421.06093923 119.24402874 421.06093923 119.24402874 421.06440622 121.06972688 C421.06961324 124.35498468 421.07039594 127.64020775 421.06921184 130.92546833 C421.06900669 134.47916542 421.07453755 138.03285453 421.07926941 141.58654785 C421.08755243 148.53987798 421.09032321 155.49319963 421.09088179 162.44653428 C421.09135816 168.1040459 421.09341896 173.76155474 421.09658241 179.41906548 C421.10538338 195.48776496 421.11000278 211.55645778 421.10925194 227.62515969 C421.109192 228.92276375 421.109192 228.92276375 421.10913086 230.24658203 C421.10906954 231.54578578 421.10906954 231.54578578 421.10900698 232.87123608 C421.1086009 246.89472295 421.11816234 260.91818292 421.13226923 274.94166202 C421.14666679 289.36893092 421.15353752 303.79618674 421.15267545 318.223463 C421.1523446 326.31190562 421.15504237 334.40032006 421.1658535 342.48875618 C421.17500321 349.37794238 421.17709741 356.26708763 421.17034408 363.15627731 C421.16710098 366.66421811 421.16694107 370.17208053 421.17569733 373.68001366 C421.2107606 390.88582514 421.20316467 407.84489357 416.86132812 424.61791992 C416.68794922 425.3269043 416.51457031 426.03588867 416.3359375 426.76635742 C415.62734937 429.63328871 414.85801371 432.44036316 413.92382812 435.24291992 C413.26382813 435.24291992 412.60382812 435.24291992 411.92382812 435.24291992 C411.78847656 436.49008789 411.78847656 436.49008789 411.65039062 437.76245117 C410.78631821 441.90163678 409.22843194 445.19526788 407.29882812 448.93041992 C406.94199951 449.63086426 406.5851709 450.33130859 406.2175293 451.05297852 C400.867767 461.39703718 395.1727332 470.9937781 385.92382812 478.24291992 C385.26382813 479.23291992 384.60382812 480.22291992 383.92382812 481.24291992 C383.26382813 481.24291992 382.60382812 481.24291992 381.92382812 481.24291992 C381.59382812 482.23291992 381.26382813 483.22291992 380.92382812 484.24291992 C379.56709649 485.22655036 378.19758684 486.19641864 376.77539062 487.08276367 C375.47785247 487.89577809 374.2030776 488.745736 372.94726562 489.62182617 C364.15169831 495.74673941 354.71093416 500.09676712 344.73632812 503.93041992 C343.6614917 504.35859009 343.6614917 504.35859009 342.56494141 504.79541016 C327.40372799 510.42525869 311.63437823 510.7059656 295.67382812 510.75463867 C293.5286361 510.77158084 291.38345341 510.78974282 289.23828125 510.80903625 C283.60200064 510.85625735 277.9657573 510.88615599 272.3293457 510.91247559 C267.87445845 510.93594926 263.41970516 510.97112055 258.96490479 511.00720501 C201.94381691 511.46814902 144.91856882 511.23967973 87.89682007 511.00720501 C76.73135253 510.96196134 65.56592103 510.92248858 54.40039062 510.89648438 C44.50782797 510.87343848 34.6153638 510.84003381 24.72287941 510.79421836 C19.53242211 510.77050767 14.34206034 510.7516313 9.15155029 510.74530602 C4.29830627 510.73921691 -0.55468644 510.71908123 -5.40783691 510.68864441 C-7.17130787 510.67994791 -8.93481173 510.67612388 -10.69830322 510.67791176 C-25.95644738 510.68848903 -40.46162636 509.00211862 -54.95117188 503.93041992 C-55.83973877 503.62555664 -56.72830566 503.32069336 -57.64379883 503.0065918 C-68.19992842 499.28237921 -77.12256127 493.91230231 -86.07617188 487.24291992 C-86.94628906 486.60225586 -87.81640625 485.9615918 -88.71289062 485.30151367 C-93.53035915 481.62180303 -97.33740592 478.02602075 -100.78320312 473.03588867 C-102.14521996 471.0305229 -102.14521996 471.0305229 -104.57617188 468.86791992 C-108.00328279 465.26945346 -113.07617188 459.43345445 -113.07617188 454.24291992 C-114.06617187 453.91291992 -115.05617188 453.58291992 -116.07617188 453.24291992 C-117.1953125 451.32861328 -117.1953125 451.32861328 -118.23242188 448.83276367 C-118.61527344 447.92461914 -118.998125 447.01647461 -119.39257812 446.08081055 C-119.78316406 445.12368164 -120.17375 444.16655273 -120.57617188 443.18041992 C-120.96675781 442.25036133 -121.35734375 441.32030273 -121.75976562 440.36206055 C-122.88638184 437.66311294 -123.99736321 434.96135772 -125.07617188 432.24291992 C-125.55994986 431.05435709 -126.04372784 429.86579426 -126.54216576 428.64121437 C-132.61221791 412.317053 -131.51794117 393.47873684 -131.46834588 376.37160397 C-131.46144759 372.83774117 -131.47208903 369.30391942 -131.48028564 365.77006531 C-131.4935132 358.8770262 -131.49079459 351.98408598 -131.48204772 345.09104325 C-131.47522671 339.47960597 -131.47437335 333.86819608 -131.47761917 328.25675583 C-131.47807887 327.4530609 -131.47853857 326.64936597 -131.4790122 325.82131665 C-131.47997154 324.18775968 -131.48094418 322.55420272 -131.48192997 320.92064576 C-131.490452 305.65973573 -131.48070065 290.39888006 -131.46452887 275.13797896 C-131.45113376 262.09448155 -131.45345336 249.05106431 -131.46728516 236.00756836 C-131.48340656 220.79821024 -131.48962296 205.5888996 -131.48044837 190.37953413 C-131.47949289 188.75192794 -131.47854978 187.12432175 -131.47761917 185.49671555 C-131.47715634 184.69626236 -131.47669352 183.89580917 -131.47621667 183.07109983 C-131.47364598 177.47913682 -131.47795595 171.88720439 -131.48505783 166.29524612 C-131.49354665 159.46210108 -131.49104027 152.62905914 -131.4752156 145.79592563 C-131.46742984 142.32156561 -131.46407104 138.84737631 -131.47416306 135.37301826 C-131.51237384 118.0002489 -131.52894958 100.17376076 -127.07617188 83.24291992 C-126.41617188 83.24291992 -125.75617188 83.24291992 -125.07617188 83.24291992 C-124.98851563 82.27483398 -124.90085937 81.30674805 -124.81054688 80.30932617 C-124.13037824 75.58262978 -122.28719687 71.50260552 -120.32617188 67.18041992 C-119.8234375 66.01542969 -119.8234375 66.01542969 -119.31054688 64.8269043 C-117.11716059 59.92086414 -114.63478598 56.25822284 -111.07617188 52.24291992 C-110.49867187 51.17041992 -109.92117187 50.09791992 -109.32617188 48.99291992 C-106.42072286 43.72607011 -102.2387528 39.53437332 -98.07617188 35.24291992 C-97.2846875 34.4256543 -96.49320313 33.60838867 -95.67773438 32.76635742 C-82.04461817 19.55272172 -64.90807524 11.28233241 -47.01367188 5.55541992 C-46.11044189 5.25732422 -45.20721191 4.95922852 -44.27661133 4.65209961 C-29.95022689 0.25705837 -14.87211931 -0.05865188 0 0 Z M-77.07617188 44.24291992 C-77.94242188 44.88229492 -78.80867188 45.52166992 -79.70117188 46.18041992 C-96.43754619 60.71463972 -107.9956084 83.23408619 -110.07617188 105.24291992 C-110.22117121 109.28047148 -110.21539748 113.31533095 -110.20988464 117.35514832 C-110.2121502 118.57364466 -110.21441576 119.792141 -110.21674997 121.04756147 C-110.22197499 124.41766693 -110.22273659 127.78771893 -110.22155559 131.15782464 C-110.22135111 134.79736913 -110.22687495 138.43690574 -110.23161316 142.07644653 C-110.23991031 149.20297013 -110.24266759 156.32948544 -110.24322554 163.45601346 C-110.2437012 169.2514163 -110.24575848 175.04681642 -110.24892616 180.8422184 C-110.25773068 197.28599578 -110.26234593 213.72976664 -110.26159569 230.1735464 C-110.26155573 231.05954757 -110.26151578 231.94554874 -110.26147461 232.85839844 C-110.26143373 233.74548602 -110.26139285 234.6325736 -110.26135073 235.54654262 C-110.26094446 249.91632366 -110.27050972 264.28607847 -110.28461298 278.65585192 C-110.29899156 293.42313539 -110.30588232 308.19040609 -110.3050192 322.95769674 C-110.30468771 331.24332081 -110.30741359 339.52891739 -110.31819725 347.81453514 C-110.32732184 354.87045674 -110.3294615 361.92633839 -110.32268783 368.98226335 C-110.31943231 372.57867481 -110.31933072 376.17500972 -110.32804108 379.7714138 C-110.33740866 383.67956867 -110.33110469 387.58761294 -110.32341003 391.49577332 C-110.3285536 392.61943792 -110.33369716 393.74310253 -110.33899659 394.90081757 C-110.29338774 405.42445387 -108.93260123 415.34236884 -104.95117188 425.11791992 C-104.49049316 426.26490356 -104.49049316 426.26490356 -104.02050781 427.43505859 C-94.99026552 449.29763055 -79.11284772 469.32531134 -57.06298828 479.13891602 C-41.67745383 485.50497263 -27.5184614 487.29148183 -10.89819336 487.79336548 C-10.22683818 487.81426037 -9.555483 487.83515526 -8.86378372 487.85668333 C5.74619585 488.30613456 20.35385787 488.41197019 34.97031617 488.43228078 C38.64441931 488.43840512 42.31850708 488.44996534 45.99259949 488.46057129 C54.78666441 488.48468011 63.58073419 488.49963759 72.37482166 488.51263136 C74.86770726 488.51636698 77.36059237 488.52033781 79.85347748 488.52438402 C95.42878152 488.54958852 111.00408692 488.57157728 126.57940674 488.58411217 C130.1559652 488.58704024 133.73252364 488.59000221 137.30908203 488.59301758 C138.64194276 488.59413665 138.64194276 488.59413665 140.00172997 488.59527834 C154.42726789 488.60795953 168.85268342 488.64125095 183.27816403 488.68281941 C198.17395066 488.72538459 213.06967458 488.74882177 227.96552181 488.75403273 C236.29536708 488.75742471 244.62501888 488.76892039 252.95480347 488.80213547 C260.03659355 488.83033563 267.11815004 488.84104734 274.19999188 488.82994001 C277.8001174 488.82480894 281.39975511 488.82727143 284.99980736 488.85240555 C316.4175844 489.05984305 344.56329297 484.77786784 367.97070312 462.22729492 C387.29103219 443.00905479 397.00397556 421.22986924 397.23613358 393.85673428 C397.23849971 392.44127367 397.24067387 391.02581273 397.24267578 389.61035156 C397.25199855 388.07647476 397.26216059 386.54260286 397.27308273 385.00873661 C397.30026855 380.84715265 397.31549634 376.68560219 397.32849455 372.52395296 C397.34448557 368.06352876 397.37155887 363.60316944 397.39712524 359.14279175 C397.44471401 350.51382121 397.48165938 341.88483808 397.51425087 333.25579906 C397.54061655 326.29601573 397.57035927 319.33625473 397.60241699 312.37649536 C397.70345628 290.35373518 397.7906806 268.33096293 397.86452484 246.30809498 C397.90384982 234.63323888 397.94893623 222.95842576 398.00004506 211.28361547 C398.06264116 196.98203009 398.11499478 182.68048071 398.14522743 168.37878704 C398.1481417 167.00609524 398.15106306 165.63340344 398.1539917 164.26071167 C398.15541605 163.58893342 398.1568404 162.91715516 398.15830791 162.22501999 C398.16891814 157.54459959 398.18700414 152.86425488 398.20782471 148.18386841 C398.23496339 141.9579897 398.2473644 135.73225719 398.2480278 129.50632095 C398.25058848 127.27296887 398.25814834 125.03961528 398.2714119 122.80630112 C398.44523777 92.07115308 389.59462845 69.13096143 367.85351562 47.04370117 C350.1056224 29.56394158 327.73506761 22.92686445 303.32090759 22.96203613 C301.86818475 22.95685796 300.41546474 22.95082864 298.96274859 22.94402933 C294.99758227 22.92801061 291.0324886 22.92431704 287.06729376 22.9228344 C282.78010309 22.91911202 278.49294919 22.90400696 274.20578003 22.89056396 C264.84395628 22.86348392 255.48214976 22.85136179 246.12029338 22.84254265 C240.26713308 22.83700379 234.41397931 22.82852664 228.56082344 22.8195343 C212.3327358 22.79516156 196.10465336 22.77455962 179.87654781 22.76778412 C178.83939549 22.76734499 177.80224317 22.76690585 176.73366198 22.76645342 C175.17436808 22.76579858 175.17436808 22.76579858 173.58357328 22.76513052 C171.47734638 22.76424361 169.37111948 22.76335048 167.26489258 22.76245117 C166.22014767 22.76200831 165.17540276 22.76156545 164.09899891 22.76110917 C147.17917921 22.75321695 130.25953196 22.71831476 113.33977883 22.67173213 C95.93940589 22.62421562 78.53911935 22.5993764 61.13868052 22.59704828 C51.38066199 22.59521991 41.62286832 22.58384524 31.86491203 22.54740906 C23.55461592 22.51648602 15.24461421 22.50643693 6.93427145 22.52288526 C2.70096107 22.53065567 -1.53175755 22.5290518 -5.76499367 22.50077057 C-33.01577034 22.32933558 -55.60762795 26.02290567 -77.07617188 44.24291992 Z " fill="#283B44" transform="translate(137.076171875,5.757080078125)"/>
<path d="M0 0 C1.34485281 -0.00650761 2.68969526 -0.01557886 4.03451538 -0.0269928 C7.65881247 -0.04991161 11.28204554 -0.03545264 14.90630722 -0.01252341 C18.71595331 0.00651539 22.52553357 -0.00478495 26.33520508 -0.01142883 C32.73047614 -0.01775282 39.12532534 0.00041377 45.52050781 0.03320312 C52.8927569 0.07069179 60.26420715 0.06891411 67.63649845 0.04616195 C74.7560867 0.02514437 81.87538235 0.03252573 88.9949646 0.0524807 C92.01232363 0.06042482 95.02943234 0.05852604 98.04678345 0.04845619 C101.60618647 0.03783147 105.16466882 0.05223878 108.72392654 0.08519936 C110.6374824 0.09719575 112.55114328 0.08495465 114.46469116 0.07174683 C123.78833392 0.19663763 131.90607604 2.66097665 138.97265625 9.0612793 C143.62735382 14.78103479 147.41611306 22.03191355 146.8046875 29.5456543 C145.1599966 37.65469553 141.6195351 44.29206916 135.35546875 49.76049805 C130.50901387 52.83407697 125.69368223 54.89699612 119.90625 54.8581543 C119.05869141 54.85493164 118.21113281 54.85170898 117.33789062 54.84838867 C116.45681641 54.84000977 115.57574219 54.83163086 114.66796875 54.82299805 C113.77529297 54.81848633 112.88261719 54.81397461 111.96289062 54.80932617 C109.76034888 54.79754787 107.55794276 54.78109969 105.35546875 54.76049805 C103.50118647 67.85543976 103.50118647 67.85543976 107.60546875 79.6159668 C110.60332693 81.51116646 110.60332693 81.51116646 113.91796875 83.06518555 C117.75632812 84.9581946 120.50639418 87.17063479 123.60546875 90.07299805 C124.10618896 90.53996094 124.60690918 91.00692383 125.12280273 91.48803711 C129.93669467 96.11356972 133.73350276 101.17794612 137.35546875 106.76049805 C137.9484375 107.60225586 138.54140625 108.44401367 139.15234375 109.3112793 C150.90861717 127.28381233 156.01830448 153.8355205 151.63671875 174.92456055 C150.69644699 178.28375725 149.59830381 181.50214429 148.35546875 184.76049805 C148.00484375 185.81881836 147.65421875 186.87713867 147.29296875 187.9675293 C143.2329312 199.6260399 136.88809844 210.7902976 128.35546875 219.76049805 C129.4640625 219.73729492 130.57265625 219.7140918 131.71484375 219.69018555 C133.17837867 219.67142228 134.64192089 219.65322267 136.10546875 219.63549805 C137.19988281 219.61036133 137.19988281 219.61036133 138.31640625 219.5847168 C145.30056568 219.52122444 145.30056568 219.52122444 148.35546875 221.76049805 C150.37018472 224.782572 150.69265909 225.67776504 150.79296875 229.13549805 C150.83292969 229.88573242 150.87289062 230.6359668 150.9140625 231.40893555 C150.06140043 234.998464 148.16387852 236.43952613 145.35546875 238.76049805 C142.17009258 239.3785305 142.17009258 239.3785305 138.50602722 239.36849976 C137.82952993 239.37347745 137.15303264 239.37845514 136.45603544 239.38358366 C134.19553925 239.39413736 131.93687466 239.36903201 129.67651367 239.34399414 C128.05330742 239.34422091 126.43010022 239.34663618 124.80690002 239.35107422 C120.4015781 239.35678062 115.99691804 239.33148453 111.59172225 239.3003993 C106.97770115 239.27283397 102.36367862 239.27285784 97.74958801 239.26968384 C89.99790012 239.26047945 82.24645894 239.23295102 74.49487305 239.19262695 C63.57788022 239.13588668 52.66101209 239.113484 41.74389493 239.09734225 C34.16965585 239.0848648 26.59543544 239.06420027 19.02121949 239.04196215 C17.18821087 239.03660771 15.3552016 239.03147054 13.52219176 239.02654982 C8.29192143 239.01219598 3.06172073 238.99268835 -2.16849709 238.96507263 C-3.75027764 238.95738763 -5.33206698 238.95131024 -6.91386032 238.94699478 C-27.22585017 238.88816763 -27.22585017 238.88816763 -31.08203125 235.82299805 C-33.71776919 232.34382396 -34.1591686 230.13491549 -33.64453125 225.76049805 C-30.3224502 221.8264547 -28.31170919 219.91222997 -23.16796875 219.4440918 C-21.78542291 219.35768268 -20.40258664 219.27582681 -19.01953125 219.19799805 C-18.313125 219.15481445 -17.60671875 219.11163086 -16.87890625 219.06713867 C-15.13434588 218.96105054 -13.38946428 218.86026916 -11.64453125 218.76049805 C-12.39089844 218.02444336 -13.13726562 217.28838867 -13.90625 216.5300293 C-30.42288706 199.82489994 -36.90210897 180.49605391 -36.96582031 157.38476562 C-36.81102766 143.49840034 -34.3294158 129.50179524 -28.64453125 116.76049805 C-28.21398437 115.77952148 -27.7834375 114.79854492 -27.33984375 113.7878418 C-23.98592727 106.61771223 -19.89941183 100.66578625 -14.64453125 94.76049805 C-14.10183594 94.1469043 -13.55914062 93.53331055 -13 92.90112305 C-7.54406279 87.11331618 -0.23882991 80.60204078 7.171875 77.6315918 C9.85460462 75.33279486 9.76305629 74.52305581 10.0625 71.0925293 C10.1222577 69.25332023 10.15647583 67.41314176 10.16796875 65.57299805 C10.19310547 64.63262695 10.21824219 63.69225586 10.24414062 62.72338867 C10.30305899 60.40200525 10.33930185 58.08250881 10.35546875 55.76049805 C9.24429688 55.79530273 8.133125 55.83010742 6.98828125 55.8659668 C-5.2466786 56.13849712 -15.32650141 55.62094607 -24.64453125 46.76049805 C-30.2354927 40.55802519 -33.2711734 33.37330535 -32.92578125 24.9831543 C-31.92208147 17.051138 -27.77819618 10.12685974 -21.60102844 5.09631634 C-14.43145651 0.3636983 -8.45317651 -0.09360118 0 0 Z " fill="#23353F" transform="translate(108.64453125,213.239501953125)"/>
<path d="M0 0 C0.71991965 0.00223072 1.4398393 0.00446144 2.1815747 0.00675976 C2.94111446 0.00519977 3.70065421 0.00363978 4.48321033 0.00203252 C7.04803882 -0.00198064 9.61280892 0.00121345 12.17763793 0.00434887 C14.00876927 0.0029949 15.83990034 0.001215 17.67103088 -0.00096118 C22.6609587 -0.00553796 27.65086595 -0.00374445 32.64079416 -0.0005821 C37.85724877 0.00194254 43.07370157 -0.00039654 48.29015625 -0.00196826 C57.05848019 -0.00379063 65.82679573 -0.00138293 74.5951184 0.00337231 C84.72935912 0.0088049 94.86357968 0.00705985 104.9978199 0.00154591 C113.69257141 -0.00299547 122.38731685 -0.00363044 131.08206916 -0.00101542 C136.27738219 0.00054301 141.47268577 0.00075317 146.66799819 -0.00255191 C151.55822521 -0.00544513 156.44842636 -0.00342823 161.33865058 0.00234234 C163.13209955 0.00366259 164.9255507 0.00328831 166.71899879 0.00107968 C169.17099015 -0.00166099 171.62289911 0.00178502 174.07488525 0.00675976 C174.78142057 0.00452904 175.48795589 0.00229832 176.21590137 0 C187.92135921 0.04592171 187.92135921 0.04592171 191.0091809 3.13374341 C191.25527656 5.19145405 191.25527656 5.19145405 191.24968994 7.77806103 C191.25381393 9.24624783 191.25381393 9.24624783 191.25802124 10.74409497 C191.24723541 12.36033764 191.24723541 12.36033764 191.23623168 14.00923169 C191.23652374 15.14093792 191.23681579 16.27264416 191.23711669 17.43864453 C191.23571903 21.19385861 191.22013717 24.94887632 191.2044934 28.70405591 C191.20076483 31.30194502 191.19791713 33.89983554 191.19591796 36.49772656 C191.1890518 42.6459093 191.17327553 48.79401053 191.15321898 54.94216251 C191.13088226 61.94085655 191.11987217 68.93955394 191.10982811 75.93827474 C191.08890987 90.33680242 191.05371999 104.7352704 191.0091809 119.13374341 C172.96708039 119.2663503 154.92496547 119.3967948 136.88283241 119.52489483 C128.49916003 119.58446589 120.11549324 119.64467338 111.73183715 119.70649731 C91.97666725 119.85187251 72.22147726 119.98519145 52.46608317 120.09635651 C47.59643623 120.12395807 42.72682014 120.15500977 37.85720336 120.18745434 C31.79829457 120.2269712 25.73942934 120.25646024 19.68042648 120.27679455 C17.51915741 120.2855107 15.35789905 120.29762064 13.19666946 120.31332409 C10.2921557 120.33377809 7.38787745 120.34198279 4.483302 120.34663403 C3.21882799 120.35973111 3.21882799 120.35973111 1.92880905 120.37309277 C-3.76225464 120.36230787 -3.76225464 120.36230787 -5.9908191 118.13374341 C-6.23970807 116.0632087 -6.23970807 116.0632087 -6.23805726 113.45819104 C-6.24225174 112.47243084 -6.24644623 111.48667065 -6.25076783 110.47103894 C-6.24514832 109.38576413 -6.23952881 108.30048932 -6.23373902 107.18232739 C-6.23563736 106.04247387 -6.23753571 104.90262036 -6.23949158 103.72822583 C-6.24320848 99.94536053 -6.23248272 96.1626855 -6.22128785 92.37983716 C-6.22009654 89.76192255 -6.21964278 87.14400751 -6.2198993 84.52609265 C-6.21896226 79.03403854 -6.21027228 73.54203963 -6.19662964 68.05000317 C-6.18089588 61.69249451 -6.17563178 55.33504629 -6.1763652 48.97751957 C-6.17697468 42.87034967 -6.17176935 36.76320276 -6.16357338 30.6560384 C-6.16038001 28.05278212 -6.15841776 25.44952405 -6.15767968 22.84626591 C-6.15552364 19.21606755 -6.14679568 15.58594673 -6.13608277 11.95576489 C-6.13653595 10.86846585 -6.13698914 9.78116681 -6.13745606 8.66091931 C-6.13319108 7.67797894 -6.12892609 6.69503857 -6.12453187 5.68231213 C-6.12285602 4.82303333 -6.12118018 3.96375453 -6.11945355 3.07843697 C-5.85822685 -0.87078406 -3.37026741 0.01354063 0 0 Z " fill="#253741" transform="translate(299.99081909656525,66.8662565946579)"/>
<path d="M0 0 C0.77601563 0.4125 1.55203125 0.825 2.3515625 1.25 C10.95012573 6.31136163 16.35135402 14.43609138 19 24 C19.40906665 27.42788622 19.41770439 30.81870574 19.40063477 34.26806641 C19.41110336 35.76228874 19.41110336 35.76228874 19.42178345 37.28669739 C19.44167518 40.55840654 19.4412597 43.82979843 19.44140625 47.1015625 C19.45318488 49.38504888 19.46655029 51.66852757 19.48143005 53.95199585 C19.51755255 59.95014869 19.53779993 65.9482334 19.55297852 71.94647217 C19.5778455 81.55357768 19.61749073 91.16053269 19.67487907 100.76749802 C19.69118625 104.11884853 19.69498343 107.47005638 19.69789124 110.82144165 C19.7076683 112.87787115 19.7179317 114.93429842 19.72875977 116.99072266 C19.72620682 117.91970871 19.72365387 118.84869476 19.72102356 119.80583191 C19.77193941 126.24372034 20.13649131 131.01350508 24.72265625 135.90234375 C25.83184051 136.91855251 26.94535154 137.93005308 28.0625 138.9375 C40.93208822 151.25770039 47.85476151 165.78220696 48.36425781 183.66552734 C48.45088739 201.48365619 42.74194262 219.8839787 30.4375 233.1875 C15.75491062 246.74065943 -1.8877604 252.83771127 -21.76660156 252.12744141 C-39.41301867 251.12050768 -54.90977828 244.86215125 -67.14453125 231.69140625 C-78.61066627 217.98904604 -84.29761878 204.62225952 -84.4375 186.875 C-84.44773193 185.8737207 -84.45796387 184.87244141 -84.46850586 183.84082031 C-84.27214164 167.11553216 -77.66903057 153.7500655 -66 142 C-65.319375 141.29359375 -64.63875 140.5871875 -63.9375 139.859375 C-59.38392857 135.19196429 -59.38392857 135.19196429 -57 134 C-57.00888245 132.68170197 -57.01776489 131.36340393 -57.0269165 130.00515747 C-57.10813659 117.55846168 -57.16802998 105.11181994 -57.20724869 92.6649189 C-57.22808951 86.26640876 -57.25634364 79.86811322 -57.30175781 73.46972656 C-57.34533977 67.29054541 -57.36916346 61.1115702 -57.37950897 54.93224716 C-57.38687812 52.57921992 -57.40126824 50.22620347 -57.42292023 47.87326431 C-57.45211756 44.56777167 -57.45594908 41.26312116 -57.45410156 37.95751953 C-57.46848267 36.99294327 -57.48286377 36.028367 -57.49768066 35.03456116 C-57.42824776 23.49248498 -52.42522814 14.61978038 -45 6 C-42.50559865 3.62367682 -39.95083831 1.76822874 -37 0 C-36.38253906 -0.41121094 -35.76507813 -0.82242188 -35.12890625 -1.24609375 C-25.06005843 -6.91840763 -9.74711973 -5.63010526 0 0 Z " fill="#22353F" transform="translate(413,210)"/>
<path d="M0 0 C1.22396484 -0.01160156 2.44792969 -0.02320313 3.70898438 -0.03515625 C21.32610374 0.02109852 38.26933349 6.1093116 51.37109375 18.15234375 C67.97244529 36.00899597 75.39916663 57.22753992 74.6875 81.3671875 C74.02499069 96.35646066 69.49435193 110.05172968 59.4375 121.375 C58.798125 122.24125 58.15875 123.1075 57.5 124 C54.97663875 126.90568871 52.16956508 129.33318613 49.2421875 131.82421875 C47.36038746 133.40181009 47.36038746 133.40181009 45.4375 135.375 C42.66539907 135.60515037 39.99079039 135.71052379 37.21508789 135.72900391 C36.36439728 135.7421463 35.51370667 135.7552887 34.63723755 135.76882935 C31.81154029 135.80836092 28.98605668 135.83164314 26.16015625 135.8515625 C24.71065488 135.86378908 24.71065488 135.86378908 23.23187065 135.87626266 C18.10991136 135.91802673 12.98805966 135.946603 7.8659668 135.96533203 C2.59314153 135.98738306 -2.67797719 136.05607386 -7.95020199 136.13567543 C-12.01767431 136.18818872 -16.08474734 136.20473198 -20.15252876 136.21189499 C-22.09452304 136.22159236 -24.03650152 136.24472284 -25.97816277 136.28197098 C-44.32027945 136.61175587 -44.32027945 136.61175587 -52.61354065 129.33309937 C-53.25669724 128.68692657 -53.89985382 128.04075378 -54.5625 127.375 C-55.449375 126.570625 -56.33625 125.76625 -57.25 124.9375 C-58.3946875 123.6690625 -58.3946875 123.6690625 -59.5625 122.375 C-60.16449219 121.776875 -60.76648438 121.17875 -61.38671875 120.5625 C-74.62983816 106.84010579 -78.11488117 89.76566802 -77.98022461 71.28613281 C-77.41947279 51.87251796 -70.7092834 34.03150895 -56.765625 20.28515625 C-40.88772083 5.48100264 -21.42647407 -0.20373826 0 0 Z " fill="#5DB781" transform="translate(167.5625,296.625)"/>
<path d="M0 0 C5.04939802 2.35058184 8.49965922 5.99931844 11 11 C11.11712429 13.47461642 11.17516136 15.92271099 11.18945312 18.3984375 C11.20189308 19.54590454 11.20189308 19.54590454 11.21458435 20.71655273 C11.23202738 22.38724669 11.24718243 24.05796569 11.26036072 25.72869873 C11.2815251 28.40985078 11.30856415 31.09088887 11.33703613 33.77197266 C11.38674297 38.54619084 11.43116802 43.32044169 11.47393799 48.09472656 C11.51626516 52.81316574 11.56044429 57.53158586 11.60546875 62.25 C11.61829391 63.63196815 11.61829391 63.63196815 11.63137817 65.04185486 C11.67588498 69.66430989 11.7300089 74.28634487 11.80273438 78.90844727 C11.83088698 80.73193116 11.85888297 82.55541749 11.88671875 84.37890625 C11.90052582 85.26904922 11.91433289 86.1591922 11.92855835 87.0763092 C11.99813738 92.2665314 11.9800055 97.44632772 11.87618256 102.63592529 C11.81941743 105.79091695 11.80714824 108.94519665 11.80226135 112.10064697 C11.7884513 113.55442351 11.75361471 115.00818007 11.69590759 116.46087646 C11.52362477 120.88289975 11.53557756 124.80086554 13 129 C15.86278473 131.54716011 18.54990575 133.0601033 22.03942871 134.625 C31.5750747 139.05371053 35.69661881 150.24154702 39.375 159.4375 C42.09880952 174.96321424 37.90316981 188.80749928 29.171875 201.69921875 C22.5063051 210.00574002 12.98472017 214.67175994 3 218 C-10.84676759 219.35550761 -23.20581252 218.16867001 -34.75 209.8125 C-36.19666369 208.57592166 -37.6128577 207.3029958 -39 206 C-39.78375 205.26910156 -40.5675 204.53820312 -41.375 203.78515625 C-47.48736065 197.58231657 -50.40891495 191.24751625 -53 183 C-53.33 182.01 -53.66 181.02 -54 180 C-55.06001238 165.15982664 -52.80264627 152.72190123 -43 141 C-38.84650397 136.21104671 -34.72736135 132.75353911 -29 130 C-28.01 130 -27.02 130 -26 130 C-25.99668985 129.39646855 -25.99337971 128.79293711 -25.98996925 128.17111683 C-25.90872733 113.48172823 -25.81663093 98.79243539 -25.71247292 84.10319233 C-25.66236412 76.9995622 -25.61592104 69.89594352 -25.578125 62.79223633 C-25.5416497 55.93869885 -25.494936 49.08529237 -25.44193649 42.23186302 C-25.42338252 39.61518732 -25.40827829 36.99848485 -25.39665604 34.38176918 C-25.3798111 30.72093502 -25.35077946 27.06038748 -25.31884766 23.3996582 C-25.31668747 22.31424744 -25.31452728 21.22883667 -25.31230164 20.11053467 C-25.30113815 19.11079117 -25.28997467 18.11104767 -25.2784729 17.08100891 C-25.27294214 16.2154453 -25.26741138 15.34988169 -25.26171303 14.45808887 C-24.870786 10.78638256 -23.88065542 7.93881191 -21.34375 5.234375 C-20.43109375 4.49960938 -20.43109375 4.49960938 -19.5 3.75 C-18.58734375 2.99976563 -18.58734375 2.99976563 -17.65625 2.234375 C-12.64184475 -1.50277608 -5.96636469 -0.48926909 0 0 Z " fill="#F9544E" transform="translate(402,225)"/>
<path d="M0 0 C8.25 0 16.5 0 25 0 C25.03738281 1.98644531 25.07476562 3.97289063 25.11328125 6.01953125 C25.16195816 7.94574613 25.21073808 9.87195995 25.26245117 11.7980957 C25.31201319 13.7929063 25.34651133 15.78807257 25.38085938 17.78320312 C25.4340332 19.66362305 25.4340332 19.66362305 25.48828125 21.58203125 C25.51446533 22.73936768 25.54064941 23.8967041 25.56762695 25.08911133 C25.76354784 27.9935919 25.76354784 27.9935919 27.40380859 29.8762207 C29.47925939 31.33741679 30.78785473 31.40116213 33.3125 31.375 C34.05113281 31.38273437 34.78976562 31.39046875 35.55078125 31.3984375 C38.7336195 31.00543266 38.7336195 31.00543266 44 28 C44.33 18.76 44.66 9.52 45 0 C52.92 0 60.84 0 69 0 C69.0825 2.371875 69.165 4.74375 69.25 7.1875 C69.63858518 14.83309071 70.91911283 21.91977251 74 29 C76.44974304 30.22487152 77.6753273 29.98796191 80.375 29.6875 C81.14585937 29.60886719 81.91671875 29.53023437 82.7109375 29.44921875 C85.3836629 29.03033593 85.3836629 29.03033593 89 27 C89.33 18.42 89.66 9.84 90 1 C93.52495692 0.29500862 96.13051133 -0.12767277 99.609375 -0.1328125 C100.44597656 -0.13410156 101.28257812 -0.13539062 102.14453125 -0.13671875 C103.00433594 -0.13285156 103.86414063 -0.12898438 104.75 -0.125 C105.62527344 -0.12886719 106.50054687 -0.13273437 107.40234375 -0.13671875 C108.23378906 -0.13542969 109.06523437 -0.13414063 109.921875 -0.1328125 C110.68081055 -0.13168457 111.43974609 -0.13055664 112.22167969 -0.12939453 C114 0 114 0 115 1 C115.1584265 3.0708472 115.25124422 5.14678029 115.31640625 7.22265625 C115.35830078 8.48271484 115.40019531 9.74277344 115.44335938 11.04101562 C115.48317596 12.38150736 115.52288814 13.7220022 115.5625 15.0625 C115.60568042 16.40691523 115.64929456 17.7513166 115.69335938 19.09570312 C115.79985358 22.3970234 115.9018646 25.69842236 116 29 C119.43819004 30.44282466 122.00545145 31.2566108 125.75 31.1875 C126.91789062 31.17783203 126.91789062 31.17783203 128.109375 31.16796875 C130.01108762 31.20283157 130.01108762 31.20283157 131 30 C131.15858842 27.85613343 131.25129298 25.70733162 131.31640625 23.55859375 C131.35830078 22.25341797 131.40019531 20.94824219 131.44335938 19.60351562 C131.48317608 18.2148467 131.52288825 16.82617478 131.5625 15.4375 C131.60567989 14.04490817 131.649294 12.65232972 131.69335938 11.25976562 C131.79985806 7.83997451 131.90047056 4.42000104 132 1 C140.25 1 148.5 1 157 1 C157.33 27.4 157.66 53.8 158 81 C105.86 81 53.72 81 0 81 C0 54.27 0 27.54 0 0 Z " fill="#FBB030" transform="translate(315,86)"/>
<path d="M0 0 C2.84576474 1.86048063 4.76063028 3.82025959 6 7 C6.11486171 10.58623769 5.82099156 12.96549809 3.55053711 15.82641602 C1.64159321 17.72513936 -0.33245426 19.49599232 -2.375 21.25 C-3.73700348 22.46351438 -5.0989835 23.67705509 -6.4609375 24.890625 C-7.06728027 25.41688477 -7.67362305 25.94314453 -8.29833984 26.48535156 C-9.92129816 27.92994745 -11.46363237 29.46363237 -13 31 C54.815 31.495 54.815 31.495 124 32 C122.02 30.02 120.04 28.04 118 26 C118 25.34 118 24.68 118 24 C117.01 23.67 116.02 23.34 115 23 C113.73037853 21.53505215 112.4658477 20.06360932 111.2734375 18.53515625 C109.94142627 16.82746716 109.94142627 16.82746716 107.6875 15.125 C105.47202556 12.3351433 105.42987442 10.39471989 105.60546875 6.90234375 C106.21388107 3.96871205 107.61146514 2.70609633 110 1 C113.57634313 -0.19211438 116.24064683 -0.25926574 120 0 C124.13149 2.08619792 127.39860523 4.98187476 130.75 8.125 C131.27295654 8.61073486 131.79591309 9.09646973 132.3347168 9.59692383 C139.61605518 16.3957304 146.55801956 23.39791715 153 31 C153.8146875 31.91394531 154.629375 32.82789063 155.46875 33.76953125 C156.3040625 34.73246094 157.139375 35.69539063 158 36.6875 C158.78375 37.57824219 159.5675 38.46898437 160.375 39.38671875 C162 42 162 42 161.87890625 44.65234375 C159.41680751 51.22888304 153.17727813 55.58037233 148 60 C142.59018447 64.69755141 137.48882798 69.39941246 132.86328125 74.875 C121.62592453 87.6907695 121.62592453 87.6907695 116.9765625 88.23828125 C110.626703 88.4386921 110.626703 88.4386921 107.5 86.25 C105.96605547 83.94908321 105.31126695 82.72358577 105 80 C104.855625 78.9275 104.71125 77.855 104.5625 76.75 C105.5696388 68.11738171 113.87867766 61.61995689 120 56 C120.99 55.34 121.98 54.68 123 54 C76.47 53.67 29.94 53.34 -18 53 C-14.7 56.3 -11.4 59.6 -8 63 C-6.35 64.65 -4.7 66.3 -3 68 C-2.40574219 68.52464844 -1.81148437 69.04929687 -1.19921875 69.58984375 C1.5180633 72.01222697 2.85715712 73.37668563 3.6875 77 C2.73253249 81.16713094 0.98223321 82.94676124 -2 86 C-5.2233898 87.6116949 -8.50945306 87.53158484 -12 87 C-14.87890625 85.12109375 -14.87890625 85.12109375 -17.5625 82.4375 C-18.05500244 81.95587402 -18.54750488 81.47424805 -19.05493164 80.97802734 C-20.72282561 79.33723052 -22.36019394 77.66884141 -24 76 C-25.30819127 74.70010522 -26.61815314 73.40199042 -27.9296875 72.10546875 C-31.10085788 68.96193049 -34.25206296 65.79961114 -37.39086914 62.6237793 C-38.81317318 61.18852757 -40.24567853 59.76340076 -41.6796875 58.33984375 C-43.91205254 56.08868775 -46.06791441 53.79487275 -48.1875 51.4375 C-48.86167969 50.69371094 -49.53585938 49.94992188 -50.23046875 49.18359375 C-52.57619102 46.28898283 -53.8350902 44.20309198 -54.34375 40.4921875 C-53.90015952 37.27615656 -52.86123981 36.31368767 -50.5 34.125 C-49.76265625 33.43277344 -49.0253125 32.74054688 -48.265625 32.02734375 C-45.61174318 29.65257709 -42.95097618 27.28990141 -40.25 24.96875 C-38.05485531 23.0479984 -35.90910669 21.08000076 -33.77050781 19.09667969 C-10.78929857 -2.20189767 -10.78929857 -2.20189767 0 0 Z " fill="#22353F" transform="translate(111,85)"/>
<path d="M0 0 C2.10101318 1.00248718 2.10101318 1.00248718 4 3 C4.36872799 5.90227534 4.48252448 8.42373063 4.41894531 11.32348633 C4.41643265 12.17260086 4.41391998 13.02171539 4.41133118 13.89656067 C4.40391496 15.74144077 4.38763622 17.58630147 4.36359406 19.43103981 C4.32787252 22.3526814 4.32018848 25.27314581 4.32073975 28.19499207 C4.3181138 36.50185374 4.27166013 44.80805906 4.18896484 53.11450195 C4.14035114 58.19515265 4.1305698 63.27469035 4.14455414 68.35553551 C4.14194515 70.29046165 4.1242884 72.22542885 4.09122467 74.16007423 C3.4685447 84.29133099 3.4685447 84.29133099 6.7376709 93.44296265 C8.77447469 94.9672486 10.69848076 95.94398135 13 97 C17.2069512 100.95787163 19.69429225 105.2557397 20.3359375 111.015625 C20.44247903 119.83726356 18.856439 125.40929446 14.25 132.8125 C8.58942113 138.31584057 1.43841949 140.37163483 -6.30078125 140.28125 C-13.16768897 139.56574008 -18.6645665 136.32638973 -23 131 C-27.76585488 123.68158555 -28.74742734 117.62838918 -28 109 C-26.23382989 102.01885464 -20.82488679 96.93892007 -15 93 C-12.21484375 92.27734375 -12.21484375 92.27734375 -10 92 C-10.16210339 91.41698183 -10.32420677 90.83396366 -10.49122238 90.23327827 C-11.28503944 86.74881999 -11.15607923 83.23932504 -11.16113281 79.68310547 C-11.16609772 78.84692688 -11.17106262 78.01074829 -11.17617798 77.14923096 C-11.1907617 74.38854141 -11.19759306 71.6279092 -11.203125 68.8671875 C-11.20887682 66.94955443 -11.21463455 65.03192137 -11.22039795 63.11428833 C-11.23089521 59.09783663 -11.23674713 55.08140489 -11.24023438 51.06494141 C-11.24573553 45.90852514 -11.26980329 40.75237075 -11.29820633 35.59603691 C-11.31678483 31.63790094 -11.3220356 27.67982889 -11.32357025 23.72165298 C-11.326605 21.81977014 -11.33466104 19.91788862 -11.34775543 18.01604843 C-11.36472621 15.36319413 -11.36295865 12.71099135 -11.35644531 10.05810547 C-11.3656601 9.26741669 -11.37487488 8.47672791 -11.3843689 7.66207886 C-11.36749268 5.47848511 -11.36749268 5.47848511 -11 2 C-7.3946611 -0.40355927 -4.20638975 -0.75085268 0 0 Z " fill="#213641" transform="translate(398,280)"/>
<path d="M0 0 C1.68875999 -0.01485695 1.68875999 -0.01485695 3.41163635 -0.03001404 C4.64756531 -0.02551239 5.88349426 -0.02101074 7.15687561 -0.01637268 C8.45786697 -0.02323593 9.75885834 -0.03009918 11.09927368 -0.03717041 C14.66956989 -0.05513708 18.23962081 -0.05392689 21.80994868 -0.04822803 C24.78964882 -0.04514103 27.7693015 -0.05122319 30.74899489 -0.05726677 C37.77822432 -0.07132206 44.80733224 -0.06974258 51.83656311 -0.05836487 C59.08995302 -0.04688381 66.34297319 -0.06095654 73.59631437 -0.08776134 C79.82231469 -0.10990874 86.04819886 -0.11655789 92.27423579 -0.11068493 C95.99341944 -0.10731165 99.71236609 -0.10975462 103.43151665 -0.12693596 C107.57848954 -0.14525689 111.72474177 -0.13122806 115.87171936 -0.11402893 C117.10562408 -0.1236969 118.33952881 -0.13336487 119.61082458 -0.14332581 C120.73948441 -0.13349167 121.86814423 -0.12365753 123.03100586 -0.11352539 C124.01158431 -0.11331611 124.99216276 -0.11310682 126.00245571 -0.1128912 C129.33748106 0.53503914 130.50575385 1.74318762 132.57899475 4.38768005 C133.64334579 8.29030054 133.9763906 10.44647935 132.39149475 14.20018005 C129.88783085 17.22184338 127.86066958 18.23175389 123.95814514 18.70652771 C122.95775208 18.73794861 121.95735901 18.76936951 120.926651 18.80174255 C119.77946594 18.84057556 118.63228088 18.87940857 117.45033264 18.91941833 C116.19341614 18.9501947 114.93649963 18.98097107 113.64149475 19.01268005 C112.28659506 19.050256 110.93169599 19.08785424 109.57679749 19.12547302 C94.94778522 19.5056293 80.32144512 19.54332477 65.68885803 19.42918396 C61.07786438 19.39433969 56.4669498 19.37725566 51.85585022 19.3657074 C45.43127469 19.34886792 39.00712151 19.31029945 32.5827837 19.25237656 C28.97777495 19.22034598 25.37314839 19.19652545 21.76799011 19.19267273 C17.69403555 19.18765946 13.62142059 19.14268922 9.54774475 19.0947113 C8.31289841 19.09863388 7.07805206 19.10255646 5.80578613 19.1065979 C-3.59613828 18.94507929 -3.59613828 18.94507929 -6.69444275 16.00413513 C-8.59614493 13.12227112 -9.04649721 11.68233599 -8.92100525 8.26268005 C-8.9055365 6.99037537 -8.9055365 6.99037537 -8.88975525 5.69236755 C-7.84726347 0.56678297 -4.79487058 0.01188637 0 0 Z " fill="#5FB882" transform="translate(103.42100524902344,232.61231994628906)"/>
<path d="M0 0 C1.051875 -0.02126953 1.051875 -0.02126953 2.125 -0.04296875 C4 0.1875 4 0.1875 6 2.1875 C7.38005234 5.99863792 7.34557745 10.11304639 7.5625 14.125 C7.6049585 14.87193115 7.64741699 15.6188623 7.69116211 16.38842773 C8.04092887 22.9931783 8.1035225 29.57356249 8 36.1875 C8.75023437 36.29964844 9.50046875 36.41179687 10.2734375 36.52734375 C14.54159384 37.56075123 17.13982746 39.92478466 20 43.1875 C22.75606126 47.96467284 23.65028166 52.70655458 23 58.1875 C21.20553286 64.78650819 19.16111506 70.5873757 14 75.1875 C6.61918016 79.25396206 0.68995588 79.92801935 -7.5625 78.625 C-13.30396541 76.22402356 -16.95998499 72.58405632 -19.4375 66.875 C-20.83734344 57.69824856 -20.36119635 51.0638255 -15 43.1875 C-14.15308594 42.54941406 -13.30617187 41.91132813 -12.43359375 41.25390625 C-8.48442184 36.27782287 -8.72744363 30.62516941 -8.25 24.4375 C-8.13785156 23.2 -8.02570313 21.9625 -7.91015625 20.6875 C-7.5075864 16.23555103 -7.12735013 11.78209781 -6.77148438 7.32617188 C-6.58447744 5.2723479 -6.30380307 3.22732063 -6 1.1875 C-3.77109005 0.07304502 -2.46944894 0.02269714 0 0 Z " fill="#233640" transform="translate(166,310.8125)"/>
<path d="M0 0 C0.66 0 1.32 0 2 0 C6.78993829 15.04412658 9.15596943 28.41197882 9.13371277 44.21156311 C9.13597833 45.40459358 9.13824388 46.59762405 9.14057809 47.82680696 C9.14578511 51.11206476 9.14656782 54.39728783 9.14538372 57.6825484 C9.14517856 61.2362455 9.15070942 64.78993461 9.15544128 68.34362793 C9.16372431 75.29695806 9.16649508 82.25027971 9.16705366 89.20361436 C9.16753004 94.86112598 9.16959084 100.51863482 9.17275429 106.17614555 C9.18155526 122.24484504 9.18617466 138.31353786 9.18542381 154.38223977 C9.18536388 155.67984383 9.18536388 155.67984383 9.18530273 157.00366211 C9.18526185 157.86979794 9.18522097 158.73593378 9.18517885 159.62831616 C9.18477277 173.65180303 9.19433422 187.675263 9.2084411 201.6987421 C9.22283867 216.126011 9.2297094 230.55326682 9.22884732 244.98054308 C9.22851647 253.0689857 9.23121425 261.15740014 9.24202538 269.24583626 C9.25117508 276.13502246 9.25326928 283.02416771 9.24651595 289.91335738 C9.24327285 293.42129818 9.24311295 296.92916061 9.2518692 300.43709373 C9.28693248 317.64290521 9.27933654 334.60197365 4.9375 351.375 C4.76412109 352.08398438 4.59074219 352.79296875 4.41210938 353.5234375 C3.70352124 356.39036879 2.93418559 359.19744324 2 362 C1.34 362 0.68 362 0 362 C-0.09023438 362.83144531 -0.18046875 363.66289062 -0.2734375 364.51953125 C-1.13750992 368.65871686 -2.69539618 371.95234796 -4.625 375.6875 C-4.98182861 376.38794434 -5.33865723 377.08838867 -5.70629883 377.81005859 C-11.05606113 388.15411726 -16.75109492 397.75085818 -26 405 C-26.66 405.99 -27.32 406.98 -28 408 C-28.66 408 -29.32 408 -30 408 C-30.33 408.99 -30.66 409.98 -31 411 C-32.35673164 411.98363044 -33.72624129 412.95349872 -35.1484375 413.83984375 C-36.44597566 414.65285817 -37.72075052 415.50281608 -38.9765625 416.37890625 C-47.77212981 422.50381949 -57.21289396 426.8538472 -67.1875 430.6875 C-68.26233643 431.11567017 -68.26233643 431.11567017 -69.35888672 431.55249023 C-84.52010013 437.18233877 -100.28944989 437.46304568 -116.25 437.51171875 C-118.39519202 437.52866091 -120.54037471 437.54682289 -122.68554688 437.56611633 C-128.32182748 437.61333743 -133.95807083 437.64323607 -139.59448242 437.66955566 C-144.04936968 437.69302933 -148.50412297 437.72820063 -152.95892334 437.76428509 C-199.29783113 438.13887706 -245.63713687 438.03711846 -291.9765625 437.81640625 C-294.08428313 437.80650889 -296.19200382 437.79662586 -298.29972458 437.78675652 C-308.15550169 437.7404556 -318.01127271 437.69305818 -327.86703742 437.64418942 C-339.13976292 437.58833249 -350.4124983 437.53656542 -361.68525755 437.48800808 C-370.5041338 437.44976035 -379.32298784 437.40783283 -388.14183366 437.36312145 C-393.37107486 437.33669775 -398.60031201 437.31183852 -403.8295784 437.29092598 C-408.70732729 437.27133404 -413.58503233 437.24718329 -418.46274185 437.21950912 C-420.24654856 437.21017631 -422.03036475 437.20248764 -423.8141861 437.19658089 C-426.25048995 437.18826182 -428.6866898 437.17397264 -431.12295532 437.15821838 C-431.82398553 437.15724028 -432.52501575 437.15626217 -433.2472893 437.15525442 C-437.60057772 437.11911809 -441.71547715 436.698176 -446 436 C-446 435.67 -446 435.34 -446 435 C-445.1534417 435.00056958 -445.1534417 435.00056958 -444.28978121 435.00115067 C-410.44912177 435.02378484 -376.60846412 435.04081307 -342.7677987 435.05106533 C-338.65721084 435.05231526 -334.54662299 435.05360966 -330.43603516 435.05493164 C-329.61807399 435.05519395 -328.80011283 435.05545626 -327.95736496 435.05572652 C-316.51244227 435.05948862 -305.06752309 435.06564071 -293.62260267 435.07373755 C-208.37281782 435.21951873 -208.37281782 435.21951873 -123.12562513 434.70676112 C-120.8815094 434.68405485 -118.63741009 434.66637648 -116.39323807 434.65028572 C-112.4186074 434.62085845 -108.44453986 434.56738779 -104.47021484 434.50952148 C-103.38364468 434.50332479 -102.29707451 434.49712811 -101.17757797 434.49074364 C-90.345824 434.28267543 -79.74107971 432.00323596 -69.5625 428.3125 C-68.85786621 428.05903809 -68.15323242 427.80557617 -67.42724609 427.54443359 C-55.59329025 423.12822487 -44.84734285 416.91115255 -35 409 C-33.75669922 408.00419922 -33.75669922 408.00419922 -32.48828125 406.98828125 C-10.71475774 388.49616788 2.64238412 360.08544047 6 332 C7.0071033 318.59371488 6.73044866 305.07398284 6.70889878 291.64017463 C6.70570766 286.29446593 6.73104622 280.94888029 6.75285339 275.60322571 C6.79020973 265.40868107 6.80242825 255.21426897 6.8054778 245.01966268 C6.81005764 233.7697867 6.84292989 222.52005872 6.8783381 211.27024436 C6.94003998 191.42909276 6.9712985 171.58805235 6.98052239 151.74681067 C6.98723759 137.63218495 7.01213106 123.51778551 7.05906773 109.40323544 C7.08320123 102.09599086 7.10029473 94.7887354 7.11529154 87.48146683 C7.12566532 82.60283552 7.1393842 77.72427028 7.16181374 72.84567833 C7.18244663 68.3404602 7.19336584 63.83531774 7.19720101 59.330055 C7.20025133 57.70695175 7.20669463 56.08384995 7.2171514 54.46077752 C7.27049975 45.88908732 6.98626898 37.44128448 6.11628723 28.90922546 C6.03912529 28.1419078 5.96196334 27.37459015 5.88246316 26.58402044 C5.17023963 20.22846561 3.7060478 14.24096272 1.90234375 8.1015625 C1.11849884 5.4073077 0.50107751 2.75850919 0 0 Z " fill="#F8F9F9" transform="translate(549,79)"/>
<path d="M0 0 C0 4.29 0 8.58 0 13 C-1.81628906 12.67515625 -3.63257813 12.3503125 -5.50390625 12.015625 C-12.64207344 10.92146044 -19.67831061 10.69462742 -26.88354492 10.73925781 C-28.93243097 10.74997349 -30.98043719 10.7392929 -33.02929688 10.7265625 C-41.86868427 10.71862162 -50.29143535 11.50530354 -59 13 C-59 9.04 -59 5.08 -59 1 C-39.32367018 -0.07082067 -19.69828466 -0.11037832 0 0 Z " fill="#61BA83" transform="translate(195,269)"/>
<path d="M0 0 C0.99 0.495 0.99 0.495 2 1 C-3.28970037 7.64906471 -8.48292342 12.0735147 -16 16 C-16.72316406 16.40605469 -17.44632812 16.81210937 -18.19140625 17.23046875 C-23.73844717 20.21140031 -29.55580238 22.46670067 -35.4375 24.6875 C-36.212146 24.98519287 -36.98679199 25.28288574 -37.78491211 25.58959961 C-49.78053954 30.0034991 -61.50943448 30.27595639 -74.13671875 30.1953125 C-75.86977473 30.19157487 -77.60283286 30.18873145 -79.33589172 30.18673706 C-83.86170451 30.1791596 -88.38738563 30.15956281 -92.91314697 30.1373291 C-97.5455955 30.11674271 -102.17806563 30.10770818 -106.81054688 30.09765625 C-115.87375525 30.07631044 -124.93686661 30.04224701 -134 30 C-134 29.67 -134 29.34 -134 29 C-133.10401093 28.99413376 -132.20802185 28.98826752 -131.28488159 28.98222351 C-122.78314186 28.9239832 -114.28165614 28.85173104 -105.78016472 28.76428509 C-101.41091684 28.71982275 -97.04175705 28.6805157 -92.67236328 28.65356445 C-88.44463922 28.62728778 -84.21725868 28.58671977 -79.98974991 28.53681374 C-78.38811691 28.52030781 -76.78642472 28.50869342 -75.18471909 28.50238609 C-62.08840031 28.44566747 -49.96918851 26.81114448 -37.5625 22.3125 C-36.85786621 22.05903809 -36.15323242 21.80557617 -35.42724609 21.54443359 C-22.7151318 16.80051272 -9.41189663 9.93138443 0 0 Z " fill="#C9CDCE" transform="translate(517,485)"/>
<path d="M0 0 C0.66 0 1.32 0 2 0 C3.4453125 1.50390625 3.4453125 1.50390625 5.125 3.5625 C15.975036 16.20978122 33.26455858 28.60361045 49.91796875 31.57421875 C52.75278651 32.15394696 55.32095397 33.20606727 58.00390625 34.26953125 C61.27145409 35.4652875 64.61312017 36.21376004 68 37 C68 37.33 68 37.66 68 38 C60.77702582 37.57671453 54.3899453 36.17282201 47.5625 33.8125 C46.64235107 33.49861328 45.72220215 33.18472656 44.77416992 32.86132812 C34.07480444 29.11148413 25.07040346 23.75637927 16 17 C15.12988281 16.35933594 14.25976562 15.71867187 13.36328125 15.05859375 C7.99951496 10.96160634 3.55057783 6.78773053 0 1 C0 0.67 0 0.34 0 0 Z " fill="#EAEBEC" transform="translate(35,476)"/>
<path d="M0 0 C0.33 0 0.66 0 1 0 C1.04939115 4.09338652 1.08571501 8.18665798 1.10986328 12.28027344 C1.11992877 13.67320781 1.13358234 15.06612102 1.15087891 16.45898438 C1.1751022 18.4595436 1.18540814 20.46025615 1.1953125 22.4609375 C1.20578613 23.66540527 1.21625977 24.86987305 1.22705078 26.11083984 C1 29 1 29 -1 31 C-5.94517384 31.66065191 -10.52621297 31.30905137 -15 29 C-14.67 28.34 -14.34 27.68 -14 27 C-11.93359375 26.5859375 -11.93359375 26.5859375 -9.4375 26.375 C-8.61121094 26.30023438 -7.78492188 26.22546875 -6.93359375 26.1484375 C-5.97646484 26.07496094 -5.97646484 26.07496094 -5 26 C-5 26.66 -5 27.32 -5 28 C-4.01 28 -3.02 28 -2 28 C-2 21.73 -2 15.46 -2 9 C-1.67 9 -1.34 9 -1 9 C-0.67 6.03 -0.34 3.06 0 0 Z " fill="#56534B" transform="translate(446,87)"/>
<path d="M0 0 C3.375 0.6875 3.375 0.6875 4.375 1.6875 C4.6875 4.0625 4.6875 4.0625 4.375 6.6875 C2.6875 8.5625 2.6875 8.5625 0.375 9.6875 C-2.99536311 9.44675978 -4.21298021 9.09951979 -6.625 6.6875 C-6.9375 4.1875 -6.9375 4.1875 -6.625 1.6875 C-3.625 -0.3125 -3.625 -0.3125 0 0 Z " fill="#3E7D62" transform="translate(167.625,363.3125)"/>
<path d="M0 0 C0 6.1759511 -6.02557202 12.5127426 -10 17 C-11.65893182 18.34294481 -13.32476605 19.67744688 -15 21 C-15.66 21.99 -16.32 22.98 -17 24 C-17.66 24 -18.32 24 -19 24 C-19.33 24.99 -19.66 25.98 -20 27 C-22.0625 27.6875 -22.0625 27.6875 -24 28 C-19.8619351 22.12933069 -15.20964093 16.89386857 -10.3359375 11.625 C-8.40901645 9.45963053 -6.70112983 7.32096157 -5.0625 4.9375 C-3 2 -3 2 0 0 Z " fill="#F7F8F8" transform="translate(538,463)"/>
<path d="M0 0 C0.33 0 0.66 0 1 0 C1.14486019 4.27047833 1.23392616 8.54032833 1.3125 12.8125 C1.35439453 14.02744141 1.39628906 15.24238281 1.43945312 16.49414062 C1.45556641 17.65751953 1.47167969 18.82089844 1.48828125 20.01953125 C1.51446533 21.09307861 1.54064941 22.16662598 1.56762695 23.27270508 C1 26 1 26 -1.38574219 27.83300781 C-5.25090829 29.55839948 -8.76755714 30.22942214 -13 30 C-15.5 28.625 -15.5 28.625 -17 26 C-17.59722746 23.00356565 -17.86965201 20.05014301 -18 17 C-16.31573191 20.25530808 -15.11213866 23.50470706 -14 27 C-11.03 27.33 -8.06 27.66 -5 28 C-5 27.34 -5 26.68 -5 26 C-3.35 25.34 -1.7 24.68 0 24 C0 16.08 0 8.16 0 0 Z " fill="#1A3351" transform="translate(404,87)"/>
<path d="M0 0 C5.11671853 1.49077326 8.11185696 4.61276087 11.75 8.3125 C12.66990723 9.2415918 12.66990723 9.2415918 13.60839844 10.18945312 C20.5880744 17.40728076 27.14704912 25.21845412 30 35 C28.03267966 33.2294117 26.6690828 31.50326684 25.19140625 29.28515625 C18.71394689 19.57474034 11.58891668 10.57337181 2.5625 3.125 C1.716875 2.42375 0.87125 1.7225 0 1 C0 0.67 0 0.34 0 0 Z " fill="#F1F2F3" transform="translate(513,31)"/>
<path d="M0 0 C2.01771706 2.5187609 4.03177319 5.04012814 6.03515625 7.5703125 C6.70417969 8.41335938 7.37320313 9.25640625 8.0625 10.125 C9.06990234 11.39730469 9.06990234 11.39730469 10.09765625 12.6953125 C12.09794262 15.19314427 12.09794262 15.19314427 15 18 C9.39 18 3.78 18 -2 18 C0 16 0 16 2.3828125 15.8046875 C3.28773437 15.82789063 4.19265625 15.85109375 5.125 15.875 C6.49011719 15.90207031 6.49011719 15.90207031 7.8828125 15.9296875 C8.58148438 15.95289063 9.28015625 15.97609375 10 16 C9.36191406 15.26394531 8.72382812 14.52789062 8.06640625 13.76953125 C7.24011719 12.79371094 6.41382812 11.81789063 5.5625 10.8125 C4.73878906 9.84957031 3.91507812 8.88664062 3.06640625 7.89453125 C1.05561826 5.07790762 0.3412259 3.39364669 0 0 Z " fill="#6FCFEC" transform="translate(83,415)"/>
<path d="M0 0 C2.26114443 3.39171664 2.71333041 6.0037341 3.4375 9.94140625 C3.87275231 12.20323279 3.87275231 12.20323279 6 14 C6.99 14 7.98 14 9 14 C8.34 15.32 7.68 16.64 7 18 C8.65 17.67 10.3 17.34 12 17 C12 17.66 12 18.32 12 19 C9.36 19 6.72 19 4 19 C3.35242375 17.56328432 2.70700547 16.12559584 2.0625 14.6875 C1.70285156 13.88699219 1.34320313 13.08648437 0.97265625 12.26171875 C-0.99999394 7.67471288 -0.83319044 4.9065659 0 0 Z " fill="#334046" transform="translate(386,96)"/>
<path d="M0 0 C-1 2 -1 2 -3.94921875 3.03515625 C-5.79966797 3.54369141 -5.79966797 3.54369141 -7.6875 4.0625 C-8.90824219 4.40410156 -10.12898438 4.74570312 -11.38671875 5.09765625 C-16.45118527 6.36240411 -21.15290984 7.13306879 -26.375 7.0625 C-27.68597656 7.04896484 -27.68597656 7.04896484 -29.0234375 7.03515625 C-30.00183594 7.01775391 -30.00183594 7.01775391 -31 7 C-31 6.67 -31 6.34 -31 6 C-29.91203125 5.82984375 -28.8240625 5.6596875 -27.703125 5.484375 C-19.58140857 4.16148107 -11.95294452 2.60661993 -4.22265625 -0.328125 C-2 -1 -2 -1 0 0 Z " fill="#E4E6E6" transform="translate(482,508)"/>
<path d="M0 0 C0 3.96148814 -1.46894972 5.03505539 -4 8 C-4.6496875 9.0209375 -4.6496875 9.0209375 -5.3125 10.0625 C-8.60212996 13.83948255 -11.89919489 15.78847066 -16.83203125 16.28515625 C-24.29279279 16.3536036 -24.29279279 16.3536036 -27 15 C-26.67 14.34 -26.34 13.68 -26 13 C-25.34 13.33 -24.68 13.66 -24 14 C-19.95519319 14.73847095 -16.44703112 14.8964145 -12.875 12.68359375 C-10.80444877 10.87590547 -8.89677724 8.98892836 -7 7 C-5.66694385 5.68721847 -4.33362617 4.37470245 -3 3.0625 C-1.99739287 2.04422713 -0.99636187 1.02438455 0 0 Z " fill="#81CFE6" transform="translate(245,158)"/>
<path d="M0 0 C1.68974312 3.37948625 0.00334291 6.91540309 -0.875 10.4375 C-1.06191406 11.21416016 -1.24882813 11.99082031 -1.44140625 12.79101562 C-2.19918982 15.9108267 -2.98395806 18.95187418 -4 22 C-4.66 22 -5.32 22 -6 22 C-5.38869449 17.04587829 -4.39455415 12.43416099 -3 7.625 C-2.649375 6.40039062 -2.29875 5.17578125 -1.9375 3.9140625 C-1 1 -1 1 0 0 Z " fill="#EFF2F2" transform="translate(555,419)"/>
<path d="M0 0 C0.66 0.33 1.32 0.66 2 1 C1.67 1.33 1.34 1.66 1 2 C1.85464844 2.04898437 2.70929688 2.09796875 3.58984375 2.1484375 C5.24693359 2.26058594 5.24693359 2.26058594 6.9375 2.375 C8.03964844 2.44460938 9.14179688 2.51421875 10.27734375 2.5859375 C11.62505859 2.79089844 11.62505859 2.79089844 13 3 C13.33 3.66 13.66 4.32 14 5 C8.39 5 2.78 5 -3 5 C-1 1 -1 1 0 0 Z " fill="#70D5F6" transform="translate(240,428)"/>
<path d="M0 0 C0.66 0.99 1.32 1.98 2 3 C-3.1468192 6.16727335 -7.158256 6.35050464 -13 6 C-10.11980724 4.53347983 -7.20691485 3.17952126 -4.25 1.875 C-3.05117188 1.34519531 -3.05117188 1.34519531 -1.828125 0.8046875 C-1.22484375 0.53914063 -0.6215625 0.27359375 0 0 Z " fill="#3D4751" transform="translate(357,112)"/>
<path d="M0 0 C5.94 0 11.88 0 18 0 C13.9566353 2.02168235 11.67870655 2.35927761 7.25 2.625 C6.07953125 2.69976562 4.9090625 2.77453125 3.703125 2.8515625 C2.81109375 2.90054688 1.9190625 2.94953125 1 3 C0.67 2.01 0.34 1.02 0 0 Z " fill="#2E363B" transform="translate(385,206)"/>
<path d="M0 0 C2.4932534 0.99730136 3.77467439 1.65074531 5.25 3.9375 C6 6 6 6 6 9 C4.125 8.6875 4.125 8.6875 2 8 C-0.1519437 4.77208445 -0.20086443 3.71599191 0 0 Z " fill="#778287" transform="translate(541,65)"/>
<path d="M0 0 C4.33142291 0.79900034 8.56416268 1.91199334 12.8125 3.0625 C13.50537109 3.24876953 14.19824219 3.43503906 14.91210938 3.62695312 C16.60845641 4.08321198 18.3042818 4.54140954 20 5 C20 5.33 20 5.66 20 6 C12.96871122 5.56615452 6.670985 4.25678003 0 2 C0 1.34 0 0.68 0 0 Z " fill="#CED2D3" transform="translate(83,508)"/>
<path d="M0 0 C0.33 0 0.66 0 1 0 C2.25841946 6.74153283 3.26404456 13.13484138 3 20 C2.01 19.34 1.02 18.68 0 18 C0.33 14.37 0.66 10.74 1 7 C0.34 7 -0.32 7 -1 7 C-0.67 4.69 -0.34 2.38 0 0 Z " fill="#4C5B62" transform="translate(553,94)"/>
<path d="M0 0 C0.33 0 0.66 0 1 0 C1 7.92 1 15.84 1 24 C0.34 24.33 -0.32 24.66 -1 25 C-1.66 24.67 -2.32 24.34 -3 24 C-3 23.34 -3 22.68 -3 22 C-2.01 22 -1.02 22 0 22 C0 14.74 0 7.48 0 0 Z " fill="#2F3E42" transform="translate(357,88)"/>
<path d="M0 0 C0 3.69840628 -0.82866944 4.31415433 -3.25 7 C-4.15492188 8.0209375 -4.15492188 8.0209375 -5.078125 9.0625 C-6.93766612 10.93715934 -8.84794211 12.47641919 -11 14 C-11.66 13.67 -12.32 13.34 -13 13 C-11.71034824 11.62437146 -10.37310707 10.29233607 -9 9 C-8.34 9 -7.68 9 -7 9 C-6.67 8.01 -6.34 7.02 -6 6 C-5.34 6 -4.68 6 -4 6 C-3.566875 5.071875 -3.566875 5.071875 -3.125 4.125 C-2 2 -2 2 0 0 Z " fill="#2A2A3E" transform="translate(227,417)"/>
<path d="M0 0 C0.33 0 0.66 0 1 0 C1.2475 1.27875 1.495 2.5575 1.75 3.875 C2.45537303 7.16433722 2.45537303 7.16433722 4.9375 9.25 C5.618125 9.4975 6.29875 9.745 7 10 C8.75 12.125 8.75 12.125 10 14 C7 14 7 14 5.3125 12.625 C4 11 4 11 4 9 C3.01 8.67 2.02 8.34 1 8 C-0.60769874 5.66883683 -1.09530596 4.57183574 -0.625 1.75 C-0.41875 1.1725 -0.2125 0.595 0 0 Z " fill="#69BAD7" transform="translate(216,93)"/>
<path d="M0 0 C0.66 0 1.32 0 2 0 C3.65625 2.265625 3.65625 2.265625 5.5 5.25 C6.1084375 6.22453125 6.716875 7.1990625 7.34375 8.203125 C8.66713848 10.43790366 9.88436415 12.65716472 11 15 C7.09863091 13.69954364 6.50712631 12.08176649 4.375 8.625 C3.76398437 7.64789063 3.15296875 6.67078125 2.5234375 5.6640625 C1 3 1 3 0 0 Z " fill="#E1E3E4" transform="translate(24,461)"/>
<path d="M0 0 C2.9375 1.25 2.9375 1.25 6 3 C6.875 5.1875 6.875 5.1875 7 7 C8.32 7.33 9.64 7.66 11 8 C11 8.66 11 9.32 11 10 C6.23439379 8.59835111 3.04117557 5.84588526 0 2 C0 1.34 0 0.68 0 0 Z " fill="#374550" transform="translate(148,379)"/>
<path d="M0 0 C0.86625 0.5259375 0.86625 0.5259375 1.75 1.0625 C4.35801776 2.14917407 5.39417629 1.93065133 8 1 C8.33 1.99 8.66 2.98 9 4 C8.34 4 7.68 4 7 4 C7.99 5.485 7.99 5.485 9 7 C8.67 7.99 8.34 8.98 8 10 C6.85157077 8.71064081 5.70633773 7.41843421 4.5625 6.125 C3.92441406 5.40570313 3.28632812 4.68640625 2.62890625 3.9453125 C1 2 1 2 0 0 Z " fill="#6AD0F2" transform="translate(95,140)"/>
<path d="M0 0 C0.6875 1.8125 0.6875 1.8125 1 4 C-0.3125 5.75 -0.3125 5.75 -2 7 C-2.66 7 -3.32 7 -4 7 C-4.66 8.98 -5.32 10.96 -6 13 C-6.33 12.01 -6.66 11.02 -7 10 C-5.8203125 7.7734375 -5.8203125 7.7734375 -4.125 5.375 C-3.57070313 4.57835937 -3.01640625 3.78171875 -2.4453125 2.9609375 C-1 1 -1 1 0 0 Z " fill="#21292F" transform="translate(366,219)"/>
<path d="M0 0 C0.515625 0.66 1.03125 1.32 1.5625 2 C4.61208585 5.75333644 7.7986681 9.37602035 11 13 C8 13 8 13 5.95703125 11.171875 C5.24933594 10.37265625 4.54164062 9.5734375 3.8125 8.75 C3.09707031 7.96109375 2.38164063 7.1721875 1.64453125 6.359375 C0 4 0 4 0 0 Z " fill="#77C9DE" transform="translate(83,415)"/>
<path d="M0 0 C0.66 0.33 1.32 0.66 2 1 C-1.61251516 5.56048012 -4.98797445 9.01665146 -10 12 C-8.52278578 8.54798361 -6.56205999 6.35038064 -3.875 3.75 C-3.15054687 3.04359375 -2.42609375 2.3371875 -1.6796875 1.609375 C-1.12539063 1.07828125 -0.57109375 0.5471875 0 0 Z " fill="#19232A" transform="translate(352,347)"/>
<path d="M0 0 C3.11020134 2.54471018 4.00133026 5.15896252 5 9 C5.125 11.875 5.125 11.875 5 14 C2.96470413 11.96470413 2.3615728 10.76582618 1.375 8.125 C1.11460937 7.44695312 0.85421875 6.76890625 0.5859375 6.0703125 C0 4 0 4 0 0 Z " fill="#232A30" transform="translate(250,329)"/>
<path d="M0 0 C-1 2 -1 2 -3.75 3.125 C-6.70186896 3.91973395 -8.97219837 4.17810598 -12 4 C-7.66457495 0.67617413 -5.52858726 -0.12018668 0 0 Z " fill="#203038" transform="translate(481,506)"/>
<path d="M0 0 C0.33 0 0.66 0 1 0 C0.14285714 8.57142857 0.14285714 8.57142857 -2 12 C-2.66 12 -3.32 12 -4 12 C-3.33501617 7.61110675 -1.81242323 4.0188515 0 0 Z " fill="#E0E3E4" transform="translate(548,439)"/>
<path d="M0 0 C0.75 1.5625 0.75 1.5625 1 4 C-0.36068323 7.22897886 -1.76639367 10.38319684 -5 12 C-4.54738642 10.56068883 -4.08767021 9.12361001 -3.625 7.6875 C-3.24214844 6.48673828 -3.24214844 6.48673828 -2.8515625 5.26171875 C-2 3 -2 3 0 0 Z " fill="#2E3035" transform="translate(84,322)"/>
<path d="M0 0 C2 1.125 2 1.125 4 3 C4.4375 6 4.4375 6 4 9 C2.5 10.875 2.5 10.875 1 12 C1.020625 10.7625 1.04125 9.525 1.0625 8.25 C1.06766681 5.3359175 0.93015558 2.79046673 0 0 Z " fill="#49616F" transform="translate(110,156)"/>
<path d="M0 0 C2.04219706 1.69179328 2.91793306 2.63727666 3.51171875 5.26171875 C3.56972656 6.06222656 3.62773438 6.86273438 3.6875 7.6875 C3.75324219 8.49574219 3.81898438 9.30398437 3.88671875 10.13671875 C3.92410156 10.75160156 3.96148438 11.36648437 4 12 C3.34 12 2.68 12 2 12 C0.86235649 7.73383684 0 4.43513689 0 0 Z " fill="#68BFDC" transform="translate(529,91)"/>
<path d="M0 0 C5.19822672 1.36144033 8.09543873 3.46730171 12 7 C11.01 7.495 11.01 7.495 10 8 C8.33055479 6.85821872 6.6645052 5.71147095 5 4.5625 C4.071875 3.92441406 3.14375 3.28632813 2.1875 2.62890625 C1.465625 2.09136719 0.74375 1.55382812 0 1 C0 0.67 0 0.34 0 0 Z " fill="#DCDEE0" transform="translate(501,23)"/>
<path d="M0 0 C6.625 -0.25 6.625 -0.25 10 2 C5.545 2.495 5.545 2.495 1 3 C0.67 2.01 0.34 1.02 0 0 Z " fill="#303C46" transform="translate(224,85)"/>
<path d="M0 0 C0.66 0.33 1.32 0.66 2 1 C-2.625 6.875 -2.625 6.875 -6 8 C-6 5 -6 5 -4.6875 3.61328125 C-3.125 2.40885417 -1.5625 1.20442708 0 0 Z " fill="#1F2931" transform="translate(92,91)"/>
<path d="M0 0 C1.25541557 3.76624671 0.37061958 5.37188934 -1 9 C-1.66 9 -2.32 9 -3 9 C-2.25 2.25 -2.25 2.25 0 0 Z " fill="#FAFAFA" transform="translate(552,432)"/>
<path d="M0 0 C0.66 0.33 1.32 0.66 2 1 C1.67 1.33 1.34 1.66 1 2 C1.99 2.66 2.98 3.32 4 4 C1.69 4.33 -0.62 4.66 -3 5 C-1.125 1.125 -1.125 1.125 0 0 Z " fill="#86D4E8" transform="translate(240,428)"/>
<path d="M0 0 C2.29633824 3.44450737 2.54016485 5.93812283 3 10 C2.67 9.34 2.34 8.68 2 8 C1.34 8 0.68 8 0 8 C-0.79953138 4.71303767 -1.09658936 3.28976808 0 0 Z " fill="#404F56" transform="translate(550,84)"/>
<path d="M0 0 C0.33 0.66 0.66 1.32 1 2 C-0.32 3.65 -1.64 5.3 -3 7 C-3.99 6.67 -4.98 6.34 -6 6 C-4.02 4.02 -2.04 2.04 0 0 Z " fill="#1D242B" transform="translate(506,466)"/>
<path d="M0 0 C3.16115776 1.36983503 3.9927092 1.9890638 6 5 C4.68 5.33 3.36 5.66 2 6 C1.34 4.02 0.68 2.04 0 0 Z " fill="#72C4DF" transform="translate(74,149)"/>
<path d="M0 0 C2.64 0 5.28 0 8 0 C6.68 1.32 5.36 2.64 4 4 C2.68 2.68 1.36 1.36 0 0 Z " fill="#72CEE7" transform="translate(227,138)"/>
<path d="M0 0 C0.66 0.33 1.32 0.66 2 1 C1.34 2.32 0.68 3.64 0 5 C-0.66 5 -1.32 5 -2 5 C-2.33 5.99 -2.66 6.98 -3 8 C-3.36923077 3.44615385 -3.36923077 3.44615385 -1.5 1.1875 C-1.005 0.795625 -0.51 0.40375 0 0 Z " fill="#2F3A45" transform="translate(60,120)"/>
</svg>
